<?xml version="1.0" encoding="utf-8"?>
<!-- Generator: Adobe Illustrator 23.0.1, SVG Export Plug-In . SVG Version: 6.00 Build 0)  -->
<svg version="1.1" id="Layer_1" xmlns="http://www.w3.org/2000/svg" xmlns:xlink="http://www.w3.org/1999/xlink" x="0px" y="0px"
	 viewBox="0 0 143.5 43.8" style="enable-background:new 0 0 143.5 43.8;" xml:space="preserve">
<style type="text/css">
	.st0{fill-rule:evenodd;clip-rule:evenodd;fill:#1C58C7;}
</style>
<path class="st0" d="M27.3,5.5c-2.9-3-6.9-4.7-11.1-4.6C12,0.9,8,2.5,5.1,5.5c-3,2.9-4.6,7-4.6,11.2c0,0.8,0,1.6,0.1,2.4
	s0.3,1.6,0.7,2.4c0.4,0.9,0.7,1.7,1,2.3c0.3,0.6,0.9,1.6,1.8,3.1s1.7,2.7,2.4,3.7s1.9,2.7,3.5,5.1c1.7,2.4,3.1,4.6,4.4,6.5
	c0.4,0.5,1,0.9,1.6,0.8c0.6,0,1.3-0.3,1.6-0.8c1.3-1.9,2.8-4.1,4.4-6.5c1.7-2.4,2.8-4.1,3.5-5.1c0.3-0.4,0.5-0.7,0.8-1.2l-4.5-4.2
	c-1.7,1.2-3.8,1.9-6.1,1.9c-6,0-10.9-4.8-10.9-10.8v-0.1c0-6,4.8-10.8,10.8-10.8l0,0l0,0c6,0,10.9,4.8,10.9,10.8
	c0,1.9-0.4,3.6-1.3,5.2l4,3.5c0.2-0.4,0.4-0.8,0.6-1c0.3-0.6,0.6-1.4,1-2.3c0.3-0.8,0.5-1.6,0.7-2.4c0.1-0.8,0.1-1.6,0.1-2.4
	C31.9,12.5,30.3,8.5,27.3,5.5z"/>
</svg>
